<?xml version="1.0" standalone="no"?>
<!DOCTYPE svg PUBLIC "-//W3C//DTD SVG 20010904//EN"
 "http://www.w3.org/TR/2001/REC-SVG-20010904/DTD/svg10.dtd">
<svg version="1.0" xmlns="http://www.w3.org/2000/svg"
 width="180.000000pt" height="180.000000pt" viewBox="0 0 180.000000 180.000000"
 preserveAspectRatio="xMidYMid meet">
<metadata>
Created by potrace 1.14, written by Peter Selinger 2001-2017
</metadata>
<g transform="translate(0.000000,180.000000) scale(0.100000,-0.100000)"
fill="#000000" stroke="none">
<path d="M650 1156 l0 -426 -52 0 c-92 0 -192 -61 -234 -141 -27 -52 -25 -154
4 -201 46 -74 165 -100 257 -57 68 32 122 102 142 183 3 12 6 212 7 446 2 402
3 425 20 423 37 -3 441 -106 451 -115 6 -5 10 -144 10 -356 l0 -348 -62 -1
c-99 -3 -195 -64 -228 -145 -40 -101 -19 -195 55 -244 34 -23 52 -27 108 -28
106 -1 171 46 226 159 19 38 20 68 22 573 2 292 1 532 -1 532 -3 0 -112 25
-242 56 -131 31 -285 67 -343 80 -58 14 -113 27 -122 30 -17 5 -18 -20 -18
-420z"/>
<path d="M869 1168 c-4 -11 -4 -355 -1 -366 3 -9 19 -4 56 17 28 16 69 39 91
51 136 75 195 114 188 120 -4 4 -37 23 -73 42 -36 19 -109 58 -162 87 -54 29
-98 51 -99 49z"/>
</g>
</svg>
